<?xml version="1.0" encoding="UTF-8" standalone="no"?>
<!-- Created with Inkscape (http://www.inkscape.org/) -->

<svg
   width="256"
   height="256"
   viewBox="0 0 256 256"
   version="1.1"
   id="svg1"
   xml:space="preserve"
   xmlns="http://www.w3.org/2000/svg"
   xmlns:svg="http://www.w3.org/2000/svg"><defs
     id="defs1"><filter
       style="color-interpolation-filters:sRGB"
       id="filter25"
       x="-0.01206909"
       y="-0.0073649079"
       width="1.0482764"
       height="1.0294596"><feFlood
         result="flood"
         in="SourceGraphic"
         flood-opacity="1.000000"
         flood-color="rgb(0,0,0)"
         id="feFlood24" /><feGaussianBlur
         result="blur"
         in="SourceGraphic"
         stdDeviation="0.000000"
         id="feGaussianBlur24" /><feOffset
         result="offset"
         in="blur"
         dx="2.000000"
         dy="2.000000"
         id="feOffset24" /><feComposite
         result="comp1"
         operator="in"
         in="flood"
         in2="offset"
         id="feComposite24" /><feComposite
         result="comp2"
         operator="over"
         in="SourceGraphic"
         in2="comp1"
         id="feComposite25" /></filter><filter
       style="color-interpolation-filters:sRGB"
       id="filter40"
       x="-0.1243606"
       y="-0.0083344906"
       width="1.3730818"
       height="1.0250035"><feFlood
         result="flood"
         in="SourceGraphic"
         flood-opacity="1.000000"
         flood-color="rgb(0,0,0)"
         id="feFlood39" /><feGaussianBlur
         result="blur"
         in="SourceGraphic"
         stdDeviation="0.000000"
         id="feGaussianBlur39" /><feOffset
         result="offset"
         in="blur"
         dx="1.000000"
         dy="1.000000"
         id="feOffset39" /><feComposite
         result="comp1"
         operator="in"
         in="flood"
         in2="offset"
         id="feComposite39" /><feComposite
         result="comp2"
         operator="over"
         in="SourceGraphic"
         in2="comp1"
         id="feComposite40" /></filter></defs><g
     id="layer1"
     transform="translate(-266)"><rect
       style="display:none;fill:#fdfd96;fill-opacity:1;stroke:none;stroke-width:2;stroke-dasharray:none;stroke-opacity:1"
       id="rect50"
       width="256"
       height="255.99998"
       x="266"
       y="7.6293945e-06" /><g
       id="g47"
       transform="matrix(1.5945511,0.42843805,-0.42598295,1.5941783,239.58719,-96.916013)"
       style="stroke-width:0.605837"><path
         style="fill:#ffffff;fill-opacity:1;stroke:#000000;stroke-width:1.21168;stroke-dasharray:none;stroke-opacity:1;filter:url(#filter40)"
         id="path67"
         width="8.041132"
         height="11.497917"
         x="168.07425"
         y="51.584377"
         d="m 169.66681,51.584377 h 4.85601 c 0.88228,0 1.59256,0.710282 1.59256,1.592561 v 8.312796 c 0,0.882279 -0.71028,1.59256 -1.59256,1.59256 h -4.85601 c -0.88228,0 -1.59256,-0.710281 -1.59256,-1.59256 v -8.312796 c 0,-0.882279 0.71028,-1.592561 1.59256,-1.592561 z m 0,15.497917 h 4.85601 c 0.88228,0 1.59256,0.710282 1.59256,1.592561 v 8.312796 c 0,0.882279 -0.71028,1.592561 -1.59256,1.592561 h -4.85601 c -0.88228,0 -1.59256,-0.710282 -1.59256,-1.592561 v -8.312796 c 0,-0.882279 0.71028,-1.592561 1.59256,-1.592561 z m 0,15.497918 h 4.85601 c 0.88228,0 1.59256,0.710282 1.59256,1.59256 v 8.312796 c 0,0.882279 -0.71028,1.592561 -1.59256,1.592561 h -4.85601 c -0.88228,0 -1.59256,-0.710282 -1.59256,-1.592561 v -8.312796 c 0,-0.882278 0.71028,-1.59256 1.59256,-1.59256 z m 0,15.497917 h 4.85601 c 0.88228,0 1.59256,0.710282 1.59256,1.59256 v 8.312801 c 0,0.88227 -0.71028,1.59256 -1.59256,1.59256 h -4.85601 c -0.88228,0 -1.59256,-0.71029 -1.59256,-1.59256 v -8.312801 c 0,-0.882278 0.71028,-1.59256 1.59256,-1.59256 z m 0,15.497921 h 4.85601 c 0.88228,0 1.59256,0.71028 1.59256,1.59256 v 8.31279 c 0,0.88228 -0.71028,1.59256 -1.59256,1.59256 h -4.85601 c -0.88228,0 -1.59256,-0.71028 -1.59256,-1.59256 v -8.31279 c 0,-0.88228 0.71028,-1.59256 1.59256,-1.59256 z m 0,15.49791 h 4.85601 c 0.88228,0 1.59256,0.71029 1.59256,1.59256 v 8.3128 c 0,0.88228 -0.71028,1.59256 -1.59256,1.59256 h -4.85601 c -0.88228,0 -1.59256,-0.71028 -1.59256,-1.59256 v -8.3128 c 0,-0.88227 0.71028,-1.59256 1.59256,-1.59256 z m 0,15.49792 h 4.85601 c 0.88228,0 1.59256,0.71028 1.59256,1.59256 v 8.3128 c 0,0.88228 -0.71028,1.59256 -1.59256,1.59256 h -4.85601 c -0.88228,0 -1.59256,-0.71028 -1.59256,-1.59256 v -8.3128 c 0,-0.88228 0.71028,-1.59256 1.59256,-1.59256 z m 0,15.49792 h 4.85601 c 0.88228,0 1.59256,0.71028 1.59256,1.59256 v 8.31279 c 0,0.88228 -0.71028,1.59256 -1.59256,1.59256 h -4.85601 c -0.88228,0 -1.59256,-0.71028 -1.59256,-1.59256 v -8.31279 c 0,-0.88228 0.71028,-1.59256 1.59256,-1.59256 z"
         transform="translate(-92.54353,-4.3528963)"
         ry="1.5925604" /><rect
         style="fill:#000000;fill-opacity:1;stroke:#000000;stroke-width:1.21168;stroke-dasharray:none;stroke-opacity:1;filter:url(#filter25)"
         id="rect45"
         width="82.856285"
         height="135.77902"
         x="83.571854"
         y="38.333641"
         rx="8.2613487"
         ry="8.2613487" /><path
         style="fill:#ffffff;fill-opacity:1;stroke:#000000;stroke-width:1.21168;stroke-dasharray:none;stroke-opacity:1;filter:url(#filter40)"
         id="path46"
         width="8.041132"
         height="11.497917"
         x="168.07425"
         y="51.584377"
         d="m 169.66681,51.584377 h 4.85601 c 0.88228,0 1.59256,0.710282 1.59256,1.592561 v 8.312796 c 0,0.882279 -0.71028,1.59256 -1.59256,1.59256 h -4.85601 c -0.88228,0 -1.59256,-0.710281 -1.59256,-1.59256 v -8.312796 c 0,-0.882279 0.71028,-1.592561 1.59256,-1.592561 z m 0,15.497917 h 4.85601 c 0.88228,0 1.59256,0.710282 1.59256,1.592561 v 8.312796 c 0,0.882279 -0.71028,1.592561 -1.59256,1.592561 h -4.85601 c -0.88228,0 -1.59256,-0.710282 -1.59256,-1.592561 v -8.312796 c 0,-0.882279 0.71028,-1.592561 1.59256,-1.592561 z m 0,15.497918 h 4.85601 c 0.88228,0 1.59256,0.710282 1.59256,1.59256 v 8.312796 c 0,0.882279 -0.71028,1.592561 -1.59256,1.592561 h -4.85601 c -0.88228,0 -1.59256,-0.710282 -1.59256,-1.592561 v -8.312796 c 0,-0.882278 0.71028,-1.59256 1.59256,-1.59256 z m 0,15.497917 h 4.85601 c 0.88228,0 1.59256,0.710282 1.59256,1.59256 v 8.312801 c 0,0.88227 -0.71028,1.59256 -1.59256,1.59256 h -4.85601 c -0.88228,0 -1.59256,-0.71029 -1.59256,-1.59256 v -8.312801 c 0,-0.882278 0.71028,-1.59256 1.59256,-1.59256 z m 0,15.497921 h 4.85601 c 0.88228,0 1.59256,0.71028 1.59256,1.59256 v 8.31279 c 0,0.88228 -0.71028,1.59256 -1.59256,1.59256 h -4.85601 c -0.88228,0 -1.59256,-0.71028 -1.59256,-1.59256 v -8.31279 c 0,-0.88228 0.71028,-1.59256 1.59256,-1.59256 z m 0,15.49791 h 4.85601 c 0.88228,0 1.59256,0.71029 1.59256,1.59256 v 8.3128 c 0,0.88228 -0.71028,1.59256 -1.59256,1.59256 h -4.85601 c -0.88228,0 -1.59256,-0.71028 -1.59256,-1.59256 v -8.3128 c 0,-0.88227 0.71028,-1.59256 1.59256,-1.59256 z m 0,15.49792 h 4.85601 c 0.88228,0 1.59256,0.71028 1.59256,1.59256 v 8.3128 c 0,0.88228 -0.71028,1.59256 -1.59256,1.59256 h -4.85601 c -0.88228,0 -1.59256,-0.71028 -1.59256,-1.59256 v -8.3128 c 0,-0.88228 0.71028,-1.59256 1.59256,-1.59256 z m 0,15.49792 h 4.85601 c 0.88228,0 1.59256,0.71028 1.59256,1.59256 v 8.31279 c 0,0.88228 -0.71028,1.59256 -1.59256,1.59256 h -4.85601 c -0.88228,0 -1.59256,-0.71028 -1.59256,-1.59256 v -8.31279 c 0,-0.88228 0.71028,-1.59256 1.59256,-1.59256 z"
         transform="translate(-1.4142136,-4.3528963)"
         ry="1.5925604" /><text
         xml:space="preserve"
         style="font-style:normal;font-variant:normal;font-weight:normal;font-stretch:normal;font-size:69.8103px;line-height:0.5;font-family:'Archivo Black';-inkscape-font-specification:'Archivo Black, ';text-align:center;letter-spacing:0px;writing-mode:lr-tb;text-anchor:middle;fill:#ffffff;fill-opacity:1;stroke:none;stroke-width:1.21168;stroke-dasharray:none;stroke-opacity:1"
         x="-106.58446"
         y="150.01474"
         id="text47"
         transform="rotate(-90)"><tspan
           id="tspan47"
           x="-106.58446"
           y="150.01474"
           style="fill:#ffffff;fill-opacity:1;stroke:none;stroke-width:1.21168"><tspan
   style="fill:#ffffff;fill-opacity:1;stroke:none;stroke-width:1.21168"
   id="tspan46">I</tspan>C</tspan></text></g></g></svg>
