<?xml version="1.0" encoding="UTF-8" standalone="no"?>
<!-- Created with Inkscape (http://www.inkscape.org/) -->

<svg
   width="1024"
   height="256"
   viewBox="0 0 1024 256"
   version="1.1"
   id="svg1"
   xml:space="preserve"
   xmlns="http://www.w3.org/2000/svg"
   xmlns:svg="http://www.w3.org/2000/svg"><defs
     id="defs1" /><g
     id="layer1"
     transform="translate(-532,-296.5058)"><rect
       style="display:none;fill:#333333;fill-opacity:1;stroke:none;stroke-width:2;stroke-dasharray:none;stroke-opacity:1"
       id="rect112"
       width="1024"
       height="256"
       x="532"
       y="296.5058"
       rx="7.2328043"
       ry="9.1061449" /><g
       id="g107"
       transform="matrix(1.1185742,0,0,1.1185742,-106.2981,281.48032)"
       style="stroke-width:0.893995"><g
         id="g94"
         transform="matrix(1.0651454,0.28619268,-0.28455268,1.0648964,539.17212,-22.173116)"
         style="stroke-width:0.810813"><path
           style="fill:#ffffff;fill-opacity:1;stroke:none;stroke-width:1.97347;stroke-dasharray:none;stroke-opacity:1"
           id="path92"
           width="8.041132"
           height="11.497917"
           x="168.07425"
           y="51.584377"
           d="m 169.66681,51.584377 h 4.85601 c 0.88228,0 1.59256,0.710282 1.59256,1.592561 v 8.312796 c 0,0.882279 -0.71028,1.59256 -1.59256,1.59256 h -4.85601 c -0.88228,0 -1.59256,-0.710281 -1.59256,-1.59256 v -8.312796 c 0,-0.882279 0.71028,-1.592561 1.59256,-1.592561 z m 0,15.497917 h 4.85601 c 0.88228,0 1.59256,0.710282 1.59256,1.592561 v 8.312796 c 0,0.882279 -0.71028,1.592561 -1.59256,1.592561 h -4.85601 c -0.88228,0 -1.59256,-0.710282 -1.59256,-1.592561 v -8.312796 c 0,-0.882279 0.71028,-1.592561 1.59256,-1.592561 z m 0,15.497918 h 4.85601 c 0.88228,0 1.59256,0.710282 1.59256,1.59256 v 8.312796 c 0,0.882279 -0.71028,1.592561 -1.59256,1.592561 h -4.85601 c -0.88228,0 -1.59256,-0.710282 -1.59256,-1.592561 v -8.312796 c 0,-0.882278 0.71028,-1.59256 1.59256,-1.59256 z m 0,15.497917 h 4.85601 c 0.88228,0 1.59256,0.710282 1.59256,1.59256 v 8.312801 c 0,0.88227 -0.71028,1.59256 -1.59256,1.59256 h -4.85601 c -0.88228,0 -1.59256,-0.71029 -1.59256,-1.59256 v -8.312801 c 0,-0.882278 0.71028,-1.59256 1.59256,-1.59256 z m 0,15.497921 h 4.85601 c 0.88228,0 1.59256,0.71028 1.59256,1.59256 v 8.31279 c 0,0.88228 -0.71028,1.59256 -1.59256,1.59256 h -4.85601 c -0.88228,0 -1.59256,-0.71028 -1.59256,-1.59256 v -8.31279 c 0,-0.88228 0.71028,-1.59256 1.59256,-1.59256 z m 0,15.49791 h 4.85601 c 0.88228,0 1.59256,0.71029 1.59256,1.59256 v 8.3128 c 0,0.88228 -0.71028,1.59256 -1.59256,1.59256 h -4.85601 c -0.88228,0 -1.59256,-0.71028 -1.59256,-1.59256 v -8.3128 c 0,-0.88227 0.71028,-1.59256 1.59256,-1.59256 z m 0,15.49792 h 4.85601 c 0.88228,0 1.59256,0.71028 1.59256,1.59256 v 8.3128 c 0,0.88228 -0.71028,1.59256 -1.59256,1.59256 h -4.85601 c -0.88228,0 -1.59256,-0.71028 -1.59256,-1.59256 v -8.3128 c 0,-0.88228 0.71028,-1.59256 1.59256,-1.59256 z m 0,15.49792 h 4.85601 c 0.88228,0 1.59256,0.71028 1.59256,1.59256 v 8.31279 c 0,0.88228 -0.71028,1.59256 -1.59256,1.59256 h -4.85601 c -0.88228,0 -1.59256,-0.71028 -1.59256,-1.59256 v -8.31279 c 0,-0.88228 0.71028,-1.59256 1.59256,-1.59256 z"
           transform="matrix(0.67521651,2.2422078e-4,-2.2341435e-4,1.0000002,-38.956796,-4.389891)"
           ry="1.5925604" /><path
           id="rect92"
           style="fill:#ffffff;fill-opacity:1;stroke:#ffffff;stroke-width:1.62163;stroke-dasharray:none;stroke-opacity:1"
           d="m 91.833794,38.333464 c -4.576783,0 -8.261439,3.684343 -8.261439,8.261125 L 83.57178,165.85079 c 0,4.57678 3.683915,8.26212 8.260698,8.26212 l 66.334702,2.8e-4 c 4.57678,0 8.26144,-3.68435 8.26144,-8.26113 l -0.001,-119.256198 c 0,-4.576783 -3.68391,-8.262122 -8.26069,-8.262122 z m 29.908246,30.658547 -0.001,14.730054 c -2.79241,0 -5.00274,0.744382 -6.63164,2.233667 -1.62891,1.442744 -2.44275,3.512971 -2.44275,6.2123 0,3.118191 0.97664,5.422762 2.93133,6.912047 1.95469,1.442741 4.67698,2.163201 8.1675,2.163201 l 4.46788,4.6e-4 c 3.44397,0 6.16747,-0.7211 8.1687,-2.163848 1.95469,-1.489285 2.93189,-3.745686 2.93189,-6.770796 0,-2.97857 -0.76695,-5.236674 -2.30277,-6.772499 -1.53583,-1.535825 -3.70153,-2.304341 -6.49394,-2.304341 l 9.5e-4,-14.241002 c 6.56216,0 11.58773,2.025405 15.07824,6.074398 3.49052,4.002453 5.23712,9.680146 5.23712,17.033491 0,8.191067 -2.09483,14.404567 -6.28344,18.639727 -4.18862,4.18861 -10.37897,6.28191 -18.57004,6.28191 -8.19106,0 -14.37986,-2.09424 -18.56847,-6.28285 -4.18861,-4.23516 -6.28436,-10.44884 -6.28436,-18.63991 0,-7.120643 1.79197,-12.751673 5.37556,-16.893747 3.53705,-4.142074 8.61081,-6.212262 15.21952,-6.212262 z m -19.75601,57.034349 48.02931,5e-4 1e-5,15.4282 -48.02931,-5.1e-4 z" /><path
           style="fill:#ffffff;fill-opacity:1;stroke:none;stroke-width:1.97347;stroke-dasharray:none;stroke-opacity:1"
           id="path110"
           width="8.041132"
           height="11.497917"
           x="168.07425"
           y="51.584377"
           d="m 169.66681,51.584377 h 4.85601 c 0.88228,0 1.59256,0.710282 1.59256,1.592561 v 8.312796 c 0,0.882279 -0.71028,1.59256 -1.59256,1.59256 h -4.85601 c -0.88228,0 -1.59256,-0.710281 -1.59256,-1.59256 v -8.312796 c 0,-0.882279 0.71028,-1.592561 1.59256,-1.592561 z m 0,15.497917 h 4.85601 c 0.88228,0 1.59256,0.710282 1.59256,1.592561 v 8.312796 c 0,0.882279 -0.71028,1.592561 -1.59256,1.592561 h -4.85601 c -0.88228,0 -1.59256,-0.710282 -1.59256,-1.592561 v -8.312796 c 0,-0.882279 0.71028,-1.592561 1.59256,-1.592561 z m 0,15.497918 h 4.85601 c 0.88228,0 1.59256,0.710282 1.59256,1.59256 v 8.312796 c 0,0.882279 -0.71028,1.592561 -1.59256,1.592561 h -4.85601 c -0.88228,0 -1.59256,-0.710282 -1.59256,-1.592561 v -8.312796 c 0,-0.882278 0.71028,-1.59256 1.59256,-1.59256 z m 0,15.497917 h 4.85601 c 0.88228,0 1.59256,0.710282 1.59256,1.59256 v 8.312801 c 0,0.88227 -0.71028,1.59256 -1.59256,1.59256 h -4.85601 c -0.88228,0 -1.59256,-0.71029 -1.59256,-1.59256 v -8.312801 c 0,-0.882278 0.71028,-1.59256 1.59256,-1.59256 z m 0,15.497921 h 4.85601 c 0.88228,0 1.59256,0.71028 1.59256,1.59256 v 8.31279 c 0,0.88228 -0.71028,1.59256 -1.59256,1.59256 h -4.85601 c -0.88228,0 -1.59256,-0.71028 -1.59256,-1.59256 v -8.31279 c 0,-0.88228 0.71028,-1.59256 1.59256,-1.59256 z m 0,15.49791 h 4.85601 c 0.88228,0 1.59256,0.71029 1.59256,1.59256 v 8.3128 c 0,0.88228 -0.71028,1.59256 -1.59256,1.59256 h -4.85601 c -0.88228,0 -1.59256,-0.71028 -1.59256,-1.59256 v -8.3128 c 0,-0.88227 0.71028,-1.59256 1.59256,-1.59256 z m 0,15.49792 h 4.85601 c 0.88228,0 1.59256,0.71028 1.59256,1.59256 v 8.3128 c 0,0.88228 -0.71028,1.59256 -1.59256,1.59256 h -4.85601 c -0.88228,0 -1.59256,-0.71028 -1.59256,-1.59256 v -8.3128 c 0,-0.88228 0.71028,-1.59256 1.59256,-1.59256 z m 0,15.49792 h 4.85601 c 0.88228,0 1.59256,0.71028 1.59256,1.59256 v 8.31279 c 0,0.88228 -0.71028,1.59256 -1.59256,1.59256 h -4.85601 c -0.88228,0 -1.59256,-0.71028 -1.59256,-1.59256 v -8.31279 c 0,-0.88228 0.71028,-1.59256 1.59256,-1.59256 z"
           transform="matrix(0.67521651,2.2422078e-4,-2.2341435e-4,1.0000002,56.58245,-4.4558484)"
           ry="1.5925604" /></g><g
         id="g106"
         transform="matrix(0.48865144,0,0,0.48865144,647.25622,-127.8717)"
         style="fill:#ffffff;stroke-width:0.233461"><path
           id="path94"
           style="font-size:259.785px;line-height:0.5;font-family:'Archivo Black';-inkscape-font-specification:'Archivo Black, ';text-align:center;letter-spacing:0px;text-anchor:middle;fill:#ffffff;stroke-width:6.71558"
           d="m 1639.207,466.61133 c -24.0733,0 -42.9508,6.0603 -56.6328,18.18359 -13.682,12.12329 -20.5215,29.96181 -20.5215,53.51563 0,23.55381 6.8395,41.39233 20.5215,53.51562 13.682,12.12329 32.5595,18.18555 56.6328,18.18555 24.0734,0 42.9527,-6.06226 56.6348,-18.18555 13.8552,-12.29647 20.7812,-30.13499 20.7812,-53.51562 0,-23.38063 -6.926,-41.13257 -20.7812,-53.25586 -13.6821,-12.29648 -32.5614,-18.44336 -56.6348,-18.44336 z m 0,35.07031 c 17.1458,0 25.7188,9.78502 25.7188,29.35547 v 14.80859 c 0,19.39726 -8.573,29.09571 -25.7188,29.09571 -16.9726,0 -25.459,-9.69845 -25.459,-29.09571 v -14.80859 c 0,-19.57045 8.4864,-29.35547 25.459,-29.35547 z" /><path
           style="font-size:259.785px;line-height:0.5;font-family:'Archivo Black';-inkscape-font-specification:'Archivo Black, ';text-align:center;letter-spacing:0px;text-anchor:middle;fill:#ffffff;stroke-width:6.71558"
           d="M 1483.5966,606.89459 V 469.72811 h 51.6972 v 137.16648 z"
           id="path95" /><path
           style="font-size:259.785px;line-height:0.5;font-family:'Archivo Black';-inkscape-font-specification:'Archivo Black, ';text-align:center;letter-spacing:0px;text-anchor:middle;fill:#ffffff;stroke-width:6.71558"
           d="m 1483.5966,453.62144 v -35.07098 h 51.6972 v 35.07098 z"
           id="path96" /><path
           style="font-size:259.785px;line-height:0.5;font-family:'Archivo Black';-inkscape-font-specification:'Archivo Black, ';text-align:center;letter-spacing:0px;text-anchor:middle;fill:#ffffff;stroke-width:6.71558"
           d="m 1457.8778,469.72811 v 35.07098 h -29.0959 v 52.21678 q 0,9.35226 3.1174,13.76861 3.1174,4.15656 11.4305,4.15656 h 14.548 v 30.39484 q -6.2349,2.07828 -16.1067,3.37721 -9.8718,1.29892 -17.1458,1.29892 -22.8611,0 -35.3308,-8.31312 -12.2098,-8.31312 -12.2098,-28.31656 v -68.58324 h -19.2241 v -35.07098 h 21.3023 l 11.1708,-41.5656 h 38.4482 v 41.5656 z"
           id="path97" /><path
           style="font-size:259.785px;line-height:0.5;font-family:'Archivo Black';-inkscape-font-specification:'Archivo Black, ';text-align:center;letter-spacing:0px;text-anchor:middle;fill:#ffffff;stroke-width:6.71558"
           d="M 1281.7435,606.89459 V 469.72811 h 51.6973 v 137.16648 z"
           id="path98" /><path
           style="font-size:259.785px;line-height:0.5;font-family:'Archivo Black';-inkscape-font-specification:'Archivo Black, ';text-align:center;letter-spacing:0px;text-anchor:middle;fill:#ffffff;stroke-width:6.71558"
           d="m 1281.7435,453.62144 v -35.07098 h 51.6973 v 35.07098 z"
           id="path99" /><path
           style="font-size:259.785px;line-height:0.5;font-family:'Archivo Black';-inkscape-font-specification:'Archivo Black, ';text-align:center;letter-spacing:0px;text-anchor:middle;fill:#ffffff;stroke-width:6.71558"
           d="m 1201.2102,466.61069 q 23.9003,0 35.8504,13.24904 11.9501,13.24903 11.9501,38.18839 v 88.84647 h -51.6972 v -82.61163 q 0,-8.83269 -4.6762,-14.02839 -4.4163,-5.45548 -12.7294,-5.45548 -9.6121,0 -15.5871,6.23484 -5.9751,6.23484 -5.9751,15.32731 v 80.53335 h -51.6972 V 469.72811 h 42.3449 l 3.3773,20.7828 q 8.0533,-10.91097 21.0425,-17.40559 13.2491,-6.49463 27.797,-6.49463 z"
           id="path100" /><path
           id="path101"
           style="font-size:259.785px;line-height:0.5;font-family:'Archivo Black';-inkscape-font-specification:'Archivo Black, ';text-align:center;letter-spacing:0px;text-anchor:middle;fill:#ffffff;stroke-width:6.71558"
           d="m 1045.0801,444.00977 c 0,1.90508 -1.2986,5.1084 -3.8965,9.61132 -2.4247,4.32975 -7.8809,9.17996 -16.3672,14.54883 -5.7153,-1.03914 -13.2493,-1.55859 -22.6016,-1.55859 -21.30226,0 -38.44823,3.46304 -51.43746,10.39062 -12.81602,6.75441 -19.22461,18.09781 -19.22461,34.03125 0,6.23484 1.9932,12.21053 5.97657,17.92578 3.98336,5.54208 9.35107,10.47885 16.10547,14.8086 -7.44716,1.90508 -13.68258,5.62786 -18.70508,11.16992 -5.0225,5.36888 -7.53321,11.43115 -7.53321,18.18555 0,4.8493 1.21208,9.35125 3.63672,13.50781 2.42466,4.15656 5.71649,7.70812 9.87305,10.65234 -6.23482,2.77104 -11.43133,6.84011 -15.58789,12.20899 -4.15656,5.54206 -6.23438,11.69091 -6.23438,18.44531 0,6.23482 1.55837,11.86226 4.67579,16.88477 3.1174,5.19568 7.275,9.26671 12.4707,12.21093 5.36887,2.94423 11.16946,4.41602 17.4043,4.41602 h 76.37693 c 10.3914,0 20.0033,-1.8181 28.836,-5.45508 8.8325,-3.63699 15.8472,-9.00665 21.0429,-16.10742 5.1957,-7.10078 7.793,-15.58718 7.793,-25.45899 0,-13.3356 -3.8959,-23.9864 -11.6895,-31.95312 -7.7935,-7.96672 -19.3101,-11.94922 -34.5507,-11.94922 h -46.76176 c -6.06163,0 -10.30581,-0.69262 -12.73047,-2.07812 -2.42466,-1.55871 -3.63672,-3.55191 -3.63672,-5.97657 0,-5.0225 5.45624,-7.5332 16.36719,-7.5332 h 19.74416 c 16.453,0 30.1339,-3.72277 41.0449,-11.16992 11.0841,-7.44716 16.627,-18.44622 16.627,-32.99414 0,-5.71526 -1.4719,-11.08297 -4.4161,-16.10547 -2.771,-5.1957 -6.6689,-9.69959 -11.6914,-13.50977 10.5646,-2.77102 18.445,-7.01326 23.6407,-12.72851 5.3688,-5.71527 8.0527,-13.85535 8.0527,-24.41992 z m -43.3848,49.61914 c 6.2349,0 11.085,1.47178 14.5488,4.41601 3.637,2.77104 5.4551,7.01326 5.4551,12.72852 0,5.71526 -1.8181,10.04601 -5.4551,12.99023 -3.4638,2.77104 -8.3139,4.15625 -14.5488,4.15625 -6.2348,0 -11.08502,-1.38521 -14.54882,-4.15625 -3.2906,-2.94422 -4.93554,-7.27497 -4.93554,-12.99023 0,-5.54208 1.82004,-9.78429 5.45703,-12.72852 3.63698,-2.94423 8.31209,-4.41601 14.02733,-4.41601 z m -20.00389,113.26562 h 40.52739 c 3.9833,0 7.2732,1.12548 9.871,3.37695 2.5979,2.25147 3.8965,5.37015 3.8965,9.35352 0,3.98336 -1.3852,7.10009 -4.1562,9.35156 -2.5979,2.42466 -5.8012,3.63672 -9.6113,3.63672 h -40.52739 c -3.81018,0 -7.01349,-1.21206 -9.61133,-3.63672 -2.59785,-2.42466 -3.89649,-5.62796 -3.89649,-9.61133 0,-3.98336 1.21206,-7.10204 3.63672,-9.35351 2.59785,-2.07828 5.88773,-3.11719 9.8711,-3.11719 z" /><path
           style="font-size:259.785px;line-height:0.5;font-family:'Archivo Black';-inkscape-font-specification:'Archivo Black, ';text-align:center;letter-spacing:0px;text-anchor:middle;fill:#ffffff;stroke-width:6.71558"
           d="m 655.71808,425.04509 q 39.74711,0 62.86797,20.00345 23.12087,19.74366 23.12087,56.63313 h -54.81464 q 0,-15.5871 -8.31312,-24.67958 -8.05333,-9.09247 -23.12086,-9.09247 -17.4056,0 -25.71872,10.91097 -8.05333,10.91097 -8.05333,30.39484 v 16.62624 q 0,19.22409 8.05333,30.39485 8.31312,10.91097 25.19915,10.91097 16.62624,0 25.19914,-8.57291 8.57291,-8.5729 8.57291,-24.16 h 52.99614 q 0,36.62968 -22.6013,56.11356 -22.34151,19.48387 -63.38754,19.48387 -45.72216,0 -69.36259,-23.38065 -23.38065,-23.38065 -23.38065,-69.10281 0,-45.72216 23.38065,-69.10281 23.64043,-23.38065 69.36259,-23.38065 z"
           id="path102" /><path
           style="font-size:259.785px;line-height:0.5;font-family:'Archivo Black';-inkscape-font-specification:'Archivo Black, ';text-align:center;letter-spacing:0px;text-anchor:middle;fill:#ffffff;stroke-width:6.71558"
           d="M 474.90764,555.97673 V 514.9307 h 66.24518 v 41.04603 z"
           id="path103" /><path
           style="font-size:259.785px;line-height:0.5;font-family:'Archivo Black';-inkscape-font-specification:'Archivo Black, ';text-align:center;letter-spacing:0px;text-anchor:middle;fill:#ffffff;stroke-width:6.71558"
           d="m 401.64834,466.61069 q 23.90022,0 35.85033,13.24904 11.95011,13.24903 11.95011,38.18839 v 88.84647 h -51.69722 v -82.61163 q 0,-8.83269 -4.67613,-14.02839 -4.41634,-5.45548 -12.72947,-5.45548 -9.61204,0 -15.5871,6.23484 -5.97505,6.23484 -5.97505,15.32731 v 80.53335 H 307.08659 V 469.72811 h 42.34496 l 3.3772,20.7828 q 8.05334,-10.91097 21.04259,-17.40559 13.24904,-6.49463 27.797,-6.49463 z"
           id="path104" /><path
           style="font-size:259.785px;line-height:0.5;font-family:'Archivo Black';-inkscape-font-specification:'Archivo Black, ';text-align:center;letter-spacing:0px;text-anchor:middle;fill:#ffffff;stroke-width:6.71558"
           d="M 212.26508,606.89459 V 428.16251 h 57.41249 v 178.73208 z"
           id="path105" /><path
           d="m 863.21003,532.39398 q 0,-10.28264 -7.27547,-17.55808 -7.27547,-7.27546 -17.55807,-7.27546 -10.28272,0 -17.55807,7.27546 -7.27548,7.27544 -7.27548,17.55808 0,10.28264 7.27548,17.55807 7.27535,7.27548 17.55807,7.27548 10.2826,0 17.55807,-7.27548 7.27547,-7.27543 7.27547,-17.55807 z m 49.66706,-10.57364 v 21.53531 q 0,1.16408 -0.77601,2.23114 -0.7761,1.06709 -1.94011,1.26108 l -17.94616,2.71618 q -1.84304,5.23832 -3.78314,8.82754 3.39513,4.85029 10.37958,13.38682 0.97005,1.16407 0.97005,2.42516 0,1.26107 -0.87298,2.23114 -2.61924,3.58923 -9.60369,10.47664 -6.98432,6.88743 -9.1186,6.88743 -1.164,0 -2.52205,-0.87305 l -13.38681,-10.47665 q -4.26835,2.23114 -8.82759,3.68622 -1.5521,13.19282 -2.81331,18.04312 -0.67891,2.71617 -3.4922,2.71617 H 827.6088 q -1.35805,0 -2.37665,-0.82455 -1.01848,-0.82454 -1.11557,-2.08563 l -2.71612,-17.84911 q -4.75329,-1.55209 -8.73048,-3.58921 l -13.67795,10.37964 q -0.97006,0.87305 -2.4251,0.87305 -1.35816,0 -2.42518,-1.06707 -12.22283,-11.05867 -16.00606,-16.297 -0.67893,-0.97007 -0.67893,-2.23114 0,-1.16407 0.776,-2.23114 1.45503,-2.03712 4.94725,-6.45091 3.49222,-4.41375 5.23838,-6.83892 -2.61915,-4.85029 -3.97719,-9.60357 l -17.75212,-2.61916 q -1.2611,-0.19404 -2.03709,-1.21259 -0.77611,-1.01858 -0.77611,-2.27965 V 521.4323 q 0,-1.16406 0.77611,-2.23113 0.77599,-1.06708 1.84302,-1.26108 l 18.04316,-2.71618 q 1.35816,-4.46226 3.78324,-8.92455 -3.88021,-5.52934 -10.37968,-13.38682 -0.96995,-1.16408 -0.96995,-2.32814 0,-0.97006 0.87298,-2.23114 2.52217,-3.49221 9.55503,-10.42815 7.03299,-6.93593 9.16714,-6.93593 1.26098,0 2.52218,0.97005 l 13.38681,10.37964 q 4.26823,-2.23112 8.82746,-3.6862 1.55212,-13.19282 2.8132,-18.04314 0.67904,-2.71615 3.49222,-2.71615 h 21.53527 q 1.35826,0 2.37676,0.82455 1.01858,0.82454 1.11544,2.08562 l 2.71633,17.84912 q 4.75321,1.55208 8.7305,3.58921 l 13.77493,-10.37966 q 0.87309,-0.87304 2.328,-0.87304 1.26119,0 2.42519,0.97005 12.51375,11.54372 16.00596,16.49103 0.67903,0.77605 0.67903,2.13414 0,1.16406 -0.7759,2.23113 -1.45513,2.03712 -4.94745,6.45091 -3.49222,4.41376 -5.23828,6.83892 2.52216,4.85029 3.9773,9.50658 l 17.75213,2.71616 q 1.26097,0.19402 2.03707,1.21258 0.77601,1.01858 0.77601,2.27966 z"
           id="path106"
           style="fill:#ffffff;stroke-width:0.0226471" /></g></g></g></svg>
